# xmcd
#
# Track frame offsets:
#	150
#	12795
#	30110
#	41198
#	58379
#	73180
#	89401
#	106757
#	121314
#	137426
#	158632
#	171563
#	185316
#
# Disc length: 2643 seconds
#
# Revision: 1
# Processed by: cddbd v1.5.2PL0 Copyright (c) Steve Scherf et al.
# Submitted via: EasyCDDAExtractor 16.0.8.1
#
DISCID=a90a510d
DTITLE=Wailin' Willie Kueppers - Not Alone At All
DYEAR=2007
DGENRE=Blues
TTITLE0=I Feel So Good
TTITLE1=Ever Expected That?
TTITLE2=Blue Heart
TTITLE3=Feelin' Free (studio version)
TTITLE4=You Turn Me Upside Down
TTITLE5=Blue About My Baby
TTITLE6=The Good Feeling Of Your Love
TTITLE7=The Sun Behind The Clouds
TTITLE8=When The moon Tells A Story (jazz version)
TTITLE9=Call Me On The Phone
TTITLE10=Sitting In A Rusty Car
TTITLE11=Spanish Fly Blues
TTITLE12=One Fine Day
EXTD=
EXTT0=
EXTT1=
EXTT2=
EXTT3=
EXTT4=
EXTT5=
EXTT6=
EXTT7=
EXTT8=
EXTT9=
EXTT10=
EXTT11=
EXTT12=
PLAYORDER=
